# xmcd CD database file
#
# Track frame offsets:
#	150
#	21807
#	46949
#	73549
#	93900
#	118501
#	144122
#	167428
#	193255
#	216783
#
# Disc length: 3355 seconds
#
# Revision: 0
# Processed by: cddbd v1.5.2PL0 Copyright (c) Steve Scherf et al.
# Submitted via: CDex 1.84
#
DISCID=800d190a
DTITLE=Wolfgang Schmid - Special Kick
DYEAR=2005
DGENRE=Jazz
TTITLE0=Ringading dang
TTITLE1=Ringading slothang
TTITLE2=Check the soul in your soul
TTITLE3=November eleven
TTITLE4=One for mongo
TTITLE5=A funky sombrero
TTITLE6=Lillemor
TTITLE7=Hoops the house
TTITLE8=Oops cha cha
TTITLE9=Maroni moreno
EXTD=YEAR: 2005
EXTT0=
EXTT1=
EXTT2=
EXTT3=
EXTT4=
EXTT5=
EXTT6=
EXTT7=
EXTT8=
EXTT9=
PLAYORDER=
